<!DOCTYPE svg PUBLIC "-//W3C//DTD SVG 1.1//EN" "http://www.w3.org/Graphics/SVG/1.1/DTD/svg11.dtd">
<!-- Uploaded to: SVG Repo, www.svgrepo.com, Transformed by: SVG Repo Mixer Tools -->
<svg fill="#ffffff" height="800px" width="800px" version="1.1" id="Layer_1" xmlns="http://www.w3.org/2000/svg" xmlns:xlink="http://www.w3.org/1999/xlink" viewBox="0 0 512 512" xml:space="preserve" stroke="#ffffff">
<g id="SVGRepo_bgCarrier" stroke-width="0"/>
<g id="SVGRepo_tracerCarrier" stroke-linecap="round" stroke-linejoin="round"/>
<g id="SVGRepo_iconCarrier"> <g> <g> <path d="M496.387,420.096L376.045,297.131c-3.989-4.075-9.429-6.4-15.125-6.421c-5.483-0.469-11.179,2.219-15.211,6.251 l-9.365,9.365l-31.211-30.933c22.592-28.949,36.203-65.237,36.203-104.725C341.336,76.565,264.771,0,170.669,0 S0.003,76.565,0.003,170.667s76.565,170.667,170.667,170.667c39.275,0,75.371-13.461,104.235-35.84l31.275,30.997l-6.571,6.571 c-8.277,8.277-8.341,21.653-0.171,29.995l120.512,123.136C430.125,506.389,443.672,512,458.072,512 c14.4,0,27.947-5.611,38.144-15.808C517.229,475.179,517.229,440.96,496.387,420.096z M149.336,170.667 c0,0.235-0.064,0.448-0.064,0.683l43.563,26.133c6.101-3.392,13.035-5.483,20.501-5.483c23.531,0,42.667,19.136,42.667,42.667 c0,23.531-19.136,42.667-42.667,42.667c-23.531,0-42.667-19.136-42.667-42.667c0-0.235,0.064-0.448,0.064-0.683l-43.563-26.133 c-6.101,3.392-13.035,5.483-20.501,5.483c-23.531,0-42.667-19.136-42.667-42.667c0-23.531,19.136-42.667,42.667-42.667 c7.467,0,14.4,2.091,20.501,5.483l43.563-26.133c0-0.235-0.064-0.448-0.064-0.683c0-23.531,19.136-42.667,42.667-42.667 c23.531,0,42.667,19.136,42.667,42.667c0,23.531-19.136,42.667-42.667,42.667c-7.467,0-14.4-2.091-20.501-5.483l-43.563,26.133 C149.272,170.219,149.336,170.432,149.336,170.667z"/> </g> </g> </g>
</svg>